<svg width="844" height="844" viewBox="0 0 844 844" fill="none" xmlns="http://www.w3.org/2000/svg">
<path fill-rule="evenodd" clip-rule="evenodd" d="M844 211C844 327.532 749.532 422 633 422C516.468 422 422 327.532 422 211C422 94.4679 516.468 0 633 0C749.532 0 844 94.4679 844 211ZM422 633C422 749.532 516.468 844 633 844C749.532 844 844 749.532 844 633C844 516.468 749.532 422 633 422C516.468 422 422 516.468 422 633ZM211 422C327.532 422 422 516.468 422 633C422 749.532 327.532 844 211 844C94.4679 844 0 749.532 0 633C0 516.468 94.4679 422 211 422ZM211 422C327.532 422 422 327.532 422 211C422 94.4679 327.532 0 211 0C94.4679 0 0 94.4679 0 211C0 327.532 94.4679 422 211 422Z" fill="@color"/>
</svg>
