<svg width="844" height="844" viewBox="0 0 844 844" fill="none" xmlns="http://www.w3.org/2000/svg">
<path fill-rule="evenodd" clip-rule="evenodd" d="M433.493 0.153473C429.674 0.0513763 425.843 0 422 0C421.509 0 421.018 0.000839233 420.528 0.0025177C413.016 40.4077 377.579 71 334.996 71C306.163 71 280.606 56.9735 264.776 35.3718C265.581 40.1277 266 45.0149 266 50C266 98.0488 227.049 137 179 137C162.101 137 146.327 132.182 132.978 123.844C140.617 136.788 145 151.882 145 168C145 216.049 106.049 255 58 255C52.8302 255 47.7657 254.549 42.8437 253.684C65.3098 269.415 80 295.492 80 325C80 370.651 44.84 408.089 0.122963 411.713C0.118385 411.904 0.113937 412.095 0.109619 412.286C44.833 415.904 80 453.345 80 499C80 531.623 62.0443 560.052 35.4765 574.944C42.6605 573.024 50.2107 572 58 572C106.049 572 145 610.951 145 659C145 677.313 139.342 694.305 129.678 708.322C143.695 698.658 160.687 693 179 693C227.049 693 266 731.951 266 780C266 784.813 265.609 789.535 264.857 794.136C280.481 779.185 301.668 770 325 770C368.582 770 404.68 802.046 411.014 843.86C414.665 843.953 418.327 844 422 844C425.672 844 429.333 843.953 432.983 843.86C439.318 802.046 475.415 770 518.997 770C547.596 770 572.971 783.799 588.829 805.101C586.981 798.044 585.997 790.637 585.997 783C585.997 734.951 624.948 696 672.997 696C691.31 696 708.301 701.658 722.318 711.321C712.654 697.304 706.996 680.313 706.996 662C706.996 613.951 745.948 575 793.996 575C801.044 575 807.896 575.838 814.459 577.42C814.53 577.24 814.602 577.059 814.673 576.879C789.123 561.722 771.996 533.861 771.996 502C771.996 459.078 803.078 423.416 843.962 416.294C843.951 415.428 843.937 414.563 843.92 413.698C803.057 406.559 771.996 370.907 771.996 328C771.996 298.492 786.686 272.415 809.153 256.684C804.231 257.549 799.166 258 793.996 258C745.947 258 706.996 219.049 706.996 171C706.996 154.882 711.379 139.788 719.018 126.844C705.669 135.182 689.895 140 672.996 140C624.947 140 585.996 101.049 585.996 53C585.996 47.8446 586.445 42.794 587.305 37.885C571.372 58.0551 546.696 71 518.996 71C476.467 71 441.065 40.4838 433.493 0.153473Z" fill="@color"/>
</svg>
