<svg width="841" height="850" viewBox="0 0 841 850" fill="none" xmlns="http://www.w3.org/2000/svg">
<path fill-rule="evenodd" clip-rule="evenodd" d="M483 64.5C483 82.8345 475.35 99.3823 463.068 111.126L463.367 111.422C475.078 99.4385 491.421 92 509.5 92C545.122 92 574 120.878 574 156.5C574 170.51 569.533 183.477 561.946 194.054C572.523 186.467 585.49 182 599.5 182C635.122 182 664 210.878 664 246.5C664 258.398 660.778 269.544 655.16 279.112C664.438 273.944 675.125 271 686.5 271C722.122 271 751 299.878 751 335.5C751 347.254 747.856 358.274 742.363 367.764C752.264 361.576 763.964 358 776.5 358C812.122 358 841 386.878 841 422.5C841 458.122 812.122 487 776.5 487C759.644 487 744.298 480.534 732.808 469.947L732.472 470.297C743.34 481.841 750 497.393 750 514.5C750 550.122 721.122 579 685.5 579C672.819 579 660.993 575.341 651.02 569.02C657.341 578.993 661 590.819 661 603.5C661 639.122 632.122 668 596.5 668C583.331 668 571.084 664.053 560.877 657.279C567.897 667.604 572 680.073 572 693.5C572 729.122 543.122 758 507.5 758C493.969 758 481.411 753.833 471.04 746.714C479.176 757.508 484 770.941 484 785.5C484 821.122 455.122 850 419.5 850C383.878 850 355 821.122 355 785.5C355 770.572 360.071 756.828 368.585 745.898L367.569 744.826C356.726 753.092 343.186 758 328.5 758C292.878 758 264 729.122 264 693.5C264 679.49 268.467 666.523 276.054 655.946C265.477 663.533 252.51 668 238.5 668C202.878 668 174 639.122 174 603.5C174 591.602 177.222 580.456 182.84 570.888C173.562 576.056 162.875 579 151.5 579C115.878 579 87 550.122 87 514.5C87 500.512 91.4528 487.564 99.0183 476.996C89.0372 483.331 77.1971 487 64.5 487C28.8776 487 0 458.122 0 422.5C0 386.878 28.8776 358 64.5 358C75.8007 358 86.4226 360.906 95.6591 366.012C90.7725 356.928 88 346.538 88 335.5C88 299.878 116.878 271 152.5 271C165.181 271 177.007 274.659 186.98 280.98C180.659 271.007 177 259.181 177 246.5C177 210.878 205.878 182 241.5 182C254.669 182 266.916 185.947 277.123 192.721C270.103 182.396 266 169.927 266 156.5C266 120.878 294.878 92 330.5 92C344.031 92 356.589 96.1665 366.96 103.286C358.824 92.4917 354 79.0592 354 64.5C354 28.8776 382.878 0 418.5 0C454.122 0 483 28.8776 483 64.5Z" fill="@color"/>
</svg>
